<svg xmlns="http://www.w3.org/2000/svg" xmlns:xlink="http://www.w3.org/1999/xlink" fill="none" version="1.1" width="16" height="16" viewBox="0 0 16 16"><g><g style="opacity:0.5;"><ellipse cx="8" cy="8" rx="8" ry="8" fill="#000000" fill-opacity="1"/></g><g><path d="M11.38891,5.388909Q11.46627,5.31155,11.508130000000001,5.210476Q11.55,5.109402,11.55,5Q11.55,4.9458297,11.53943,4.8927Q11.52886,4.839571,11.508130000000001,4.789524Q11.487400000000001,4.739477,11.45731,4.694436Q11.427209999999999,4.649395,11.38891,4.611091Q11.3506,4.572787,11.30556,4.542692Q11.26052,4.512596,11.21048,4.491866Q11.16043,4.4711359999999996,11.1073,4.460568Q11.05417,4.45,11,4.45Q10.8906,4.45,10.78952,4.491866Q10.68845,4.533733,10.61109,4.611091L4.611091,10.61109Q4.533733,10.68845,4.491866,10.78952Q4.45,10.8906,4.45,11Q4.45,11.05417,4.460568,11.1073Q4.4711359999999996,11.16043,4.491866,11.21048Q4.512596,11.26052,4.542692,11.30556Q4.572787,11.3506,4.611091,11.38891Q4.649395,11.427209999999999,4.694436,11.45731Q4.739477,11.487400000000001,4.789524,11.508130000000001Q4.839571,11.52886,4.8927,11.53943Q4.9458297,11.55,5,11.55Q5.109402,11.55,5.210476,11.508130000000001Q5.31155,11.46627,5.388909,11.38891L11.38891,5.388909Z" fill-rule="evenodd" fill="#FFFFFF" fill-opacity="1"/></g><g><path d="M4.611091,5.388909Q4.533733,5.31155,4.491866,5.210476Q4.45,5.109402,4.45,5Q4.45,4.9458297,4.460568,4.8927Q4.4711359999999996,4.839571,4.491866,4.789524Q4.512596,4.739477,4.542692,4.694436Q4.572787,4.649395,4.611091,4.611091Q4.649395,4.572787,4.694436,4.542692Q4.739477,4.512596,4.789524,4.491866Q4.839571,4.4711359999999996,4.8927,4.460568Q4.9458297,4.45,5,4.45Q5.109402,4.45,5.210476,4.491866Q5.31155,4.533733,5.388909,4.611091L11.38891,10.61109Q11.46627,10.68845,11.508130000000001,10.78952Q11.55,10.8906,11.55,11Q11.55,11.05417,11.53943,11.1073Q11.52886,11.16043,11.508130000000001,11.21048Q11.487400000000001,11.26052,11.45731,11.30556Q11.427209999999999,11.3506,11.38891,11.38891Q11.3506,11.427209999999999,11.30556,11.45731Q11.26052,11.487400000000001,11.21048,11.508130000000001Q11.16043,11.52886,11.1073,11.53943Q11.05417,11.55,11,11.55Q10.8906,11.55,10.78952,11.508130000000001Q10.68845,11.46627,10.61109,11.38891L4.611091,5.388909Z" fill-rule="evenodd" fill="#FFFFFF" fill-opacity="1"/></g></g></svg>