<svg xmlns="http://www.w3.org/2000/svg" xmlns:xlink="http://www.w3.org/1999/xlink" fill="none" version="1.1" width="20" height="20" viewBox="0 0 20 20"><g><g><path d="M12.41379,18L5.17241,18C4.01379,18,3,16.9818,3,15.8182L3,4.18182C3,3.01818,4.01379,2,5.17241,2L12.41379,2C13.5724,2,14.5862,3.01818,14.5862,4.18182L14.5862,5.63636C14.5862,6.07273,14.2966,6.36364,13.8621,6.36364C13.4276,6.36364,13.1379,6.07273,13.1379,5.63636L13.1379,4.18182C13.1379,3.74545,12.84828,3.4545500000000002,12.41379,3.4545500000000002L5.17241,3.4545500000000002C4.73793,3.4545500000000002,4.4482800000000005,3.74545,4.4482800000000005,4.18182L4.4482800000000005,15.8182C4.4482800000000005,16.2545,4.73793,16.5455,5.17241,16.5455L12.41379,16.5455C12.84828,16.5455,13.1379,16.2545,13.1379,15.8182L13.1379,14.3636C13.1379,13.9273,13.4276,13.6364,13.8621,13.6364C14.2966,13.6364,14.5862,13.9273,14.5862,14.3636L14.5862,15.8182C14.5862,16.9818,13.5724,18,12.41379,18Z" fill="#333333" fill-opacity="1" style="mix-blend-mode:passthrough"/></g><g><path d="M16.787357951416016,12.758619737854005C16.637932951416015,12.758619737854005,16.339081951416016,12.758619737854005,16.189657951416017,12.615319737854005C15.890807051416015,12.328709737854004,15.890807051416015,11.898789737854003,16.189657951416017,11.612179737854003L17.833338951416017,10.035829737854003L16.189657951416017,8.459469737854004C15.890807051416015,8.172861737854005,15.890807051416015,7.742946737854004,16.189657951416017,7.456336737854004C16.488508951416016,7.169727137854004,16.936783951416015,7.169727137854004,17.235638951416014,7.456336737854004L19.327588951416015,9.462609737854004C19.626438951416016,9.749219737854004,19.626438951416016,10.179129737854003,19.327588951416015,10.465739737854005L17.235638951416014,12.472009737854004C17.235638951416014,12.758619737854005,16.936783951416015,12.758619737854005,16.787357951416016,12.758619737854005Z" fill="#333333" fill-opacity="1" style="mix-blend-mode:passthrough"/></g><g><path d="M18.264374779663086,10.82758651977539L10.908047779663086,10.82758651977539C10.466667779663085,10.82758651977539,10.172414779663086,10.551726519775391,10.172414779663086,10.13793151977539C10.172414779663086,9.72413851977539,10.466667779663085,9.44827651977539,10.908047779663086,9.44827651977539L18.264374779663086,9.44827651977539C18.70575477966309,9.44827651977539,19.000004779663087,9.72413851977539,19.000004779663087,10.13793151977539C19.000004779663087,10.551726519775391,18.705744779663085,10.82758651977539,18.264374779663086,10.82758651977539Z" fill="#333333" fill-opacity="1" style="mix-blend-mode:passthrough"/></g></g></svg>