<svg xmlns="http://www.w3.org/2000/svg" xmlns:xlink="http://www.w3.org/1999/xlink" fill="none" version="1.1" width="40" height="40" viewBox="0 0 40 40"><g><g><path d="M35.8572,12.9286L35.8572,36.0715C35.8572,37.1362,34.993300000000005,38,33.9285,38L6.92857,38C5.863831,38,5.000000392401,37.1362,5.000000392401,36.0715L5,3.9285699999999997C5,2.86383,5.86387,2,6.92857,2L24.9285,2.000000196201C25.9933,2.000000196201,27.4798,2.622779,28.2232,3.36606L34.491,9.63392C35.234300000000005,10.37724,35.8572,11.86385,35.8572,12.9286ZM33.2857,14.8572L24.9285,14.8572C23.8638,14.8572,23,13.9933,23,12.9286L23,4.57144L7.571400000000001,4.57144L7.571400000000001,35.4286L33.2856,35.4286L33.2857,14.8572ZM25.5714,12.2857L33.125,12.2857C33.004400000000004,11.94417,32.8236,11.60267,32.683,11.46203L26.3951,5.17409C26.2545,5.03345,25.9129,4.85267,25.5714,4.73213L25.5714,12.2857Z" fill="#E4773D" fill-opacity="1" style="mix-blend-mode:passthrough"/></g><g><path d="M31.724731755065918,22.792370288085937C31.200831755065916,22.170270288085938,30.12643175506592,21.867770288085936,28.440231755065916,21.867770288085936C27.460031755065916,21.867770288085936,26.27613175506592,21.971170288085936,24.91923175506592,22.17547028808594C21.21303175506592,19.46567028808594,20.178231755065916,16.476290288085938,20.178231755065916,16.476290288085938C20.178231755065916,16.476290288085938,20.81123175506592,14.864840288085936,20.851431755065917,12.232920288085937C20.87683175506592,10.569190288085938,20.61923175506592,9.446910288085938,19.953531755065917,8.794879288085937C19.69483175506592,8.541411288085937,19.26073175506592,8.377670288085938,18.84773175506592,8.377670288085938C18.525431755065917,8.377670288085938,18.22366175506592,8.472338688085937,17.976341755065917,8.653318288085938C16.04966175506592,10.063100288085938,18.153181755065916,16.70918028808594,18.209481755065916,16.88627028808594C17.300281755065917,19.12387028808594,16.154901755065918,21.49457028808594,14.976041755065918,23.577570288085937C14.593031755065919,24.254370288085937,14.630351755065918,24.201470288085936,14.307411755065917,24.751870288085936C14.307411755065917,24.751870288085936,11.047011755065919,26.283270288085937,9.465575755065919,28.164170288085938C8.572010755065918,29.226970288085937,8.459059655065918,29.944470288085938,8.506514275065918,30.49127028808594L8.507719755065917,30.503270288085936C8.583020755065919,31.14707028808594,9.407271755065917,31.733470288085936,10.237111755065918,31.733470288085936C10.271501755065918,31.733470288085936,10.306181755065918,31.73237028808594,10.340091755065918,31.730270288085936C11.183471755065918,31.678270288085937,12.107651755065918,31.078970288085937,13.165441755065917,29.89827028808594C13.863641755065917,29.118770288085937,14.771031755065918,27.74747028808594,15.863541755065917,25.82077028808594C18.99813175506592,24.92917028808594,21.756631755065918,24.294070288085937,24.068431755065916,23.93187028808594C25.76373175506592,24.844170288085937,28.286131755065917,25.877370288085938,30.00303175506592,25.877370288085938C30.57903175506592,25.877370288085938,31.042331755065916,25.75997028808594,31.380131755065918,25.528470288085938C31.784331755065917,25.251470288085937,31.95593175506592,24.906370288085938,32.06263175506592,24.267370288085935C32.16933175506592,23.628470288085936,32.02083175506591,23.143870288085935,31.724731755065918,22.792370288085937ZM28.06283175506592,23.57037028808594C29.569831755065916,23.57037028808594,30.38583175506592,23.789470288085937,30.80493175506592,23.973270288085935C30.93423175506592,24.029970288085938,31.028231755065917,24.084570288085935,31.094931755065918,24.13037028808594C30.976831755065916,24.20587028808594,30.744531755065918,24.30107028808594,30.32463175506592,24.30107028808594C29.62833175506592,24.30107028808594,28.714531755065916,24.05797028808594,27.599931755065917,23.57697028808594C27.758531755065917,23.572570288085938,27.91283175506592,23.57037028808594,28.06283175506592,23.57037028808594ZM19.131631755065918,9.711550288085938C19.13273175506592,9.709580288085938,19.13383175506592,9.707490288085937,19.135231755065917,9.705360288085938C19.458431755065916,9.875570288085937,19.609331755065917,11.070980288085938,19.57903175506592,11.764120288085937C19.53833175506592,12.694290288085938,19.52873175506592,13.053720288085938,19.36543175506592,13.625180288085938C18.922631755065918,12.433830288085938,18.89133175506592,10.292300288085938,19.131631755065918,9.711550288085938ZM19.249931755065916,19.141370288085938C20.010031755065917,20.375970288085938,21.13743175506592,21.712970288085938,22.223631755065917,22.667670288085937C20.10363175506592,23.115670288085937,18.068201755065918,23.67737028808594,16.801621755065916,24.11447028808594C18.15921175506592,21.79617028808594,19.160731755065918,19.371170288085935,19.249931755065916,19.141370288085938ZM10.524411755065918,29.786670288085936C10.708361755065917,29.480270288085936,11.210881755065918,28.886670288085938,12.485291755065917,27.738670288085938C11.611731755065918,29.05247028808594,10.970111755065918,29.767970288085937,10.319081755065918,30.21407028808594C10.373001755065918,30.073470288085936,10.440831755065918,29.92587028808594,10.524411755065918,29.786670288085936Z" fill="#E4773D" fill-opacity="1" style="mix-blend-mode:passthrough"/></g></g></svg>