<svg xmlns="http://www.w3.org/2000/svg" xmlns:xlink="http://www.w3.org/1999/xlink" fill="none" version="1.1" width="31" height="30" viewBox="0 0 31 30"><g><g><path d="M27,15Q27,15.2946,26.9855,15.5888Q26.9711,15.883,26.9422,16.1762Q26.9133,16.4694,26.8701,16.7608Q26.8269,17.0522,26.7694,17.3411Q26.712,17.630000000000003,26.6404,17.9158Q26.5688,18.2015,26.4833,18.4834Q26.3978,18.7653,26.2985,19.0427Q26.1993,19.32,26.0866,19.5922Q25.9738,19.8644,25.8479,20.1307Q25.7219,20.397,25.5831,20.6568Q25.4442,20.9166,25.2927,21.1692Q25.1413,21.4219,24.9776,21.6668Q24.814,21.9118,24.6385,22.1484Q24.463,22.385,24.2761,22.6127Q24.0892,22.8404,23.8914,23.0587Q23.6936,23.277,23.4853,23.4853Q23.277,23.6936,23.0587,23.8914Q22.8404,24.0892,22.6127,24.2761Q22.385,24.463,22.1484,24.6385Q21.9118,24.814,21.6668,24.9776Q21.4219,25.1413,21.1692,25.2927Q20.9166,25.4442,20.6568,25.5831Q20.397,25.7219,20.1307,25.8479Q19.8644,25.9738,19.5922,26.0866Q19.32,26.1993,19.0427,26.2985Q18.7653,26.3978,18.4834,26.4833Q18.2015,26.5688,17.9158,26.6404Q17.630000000000003,26.712,17.3411,26.7694Q17.0522,26.8269,16.7608,26.8701Q16.4694,26.9133,16.1762,26.9422Q15.883,26.9711,15.5888,26.9855Q15.2946,27,15,27Q14.7054,27,14.4112,26.9855Q14.117,26.9711,13.8238,26.9422Q13.5306,26.9133,13.2392,26.8701Q12.94784,26.8269,12.65892,26.7694Q12.36999,26.712,12.08424,26.6404Q11.79848,26.5688,11.51658,26.4833Q11.23468,26.3978,10.95732,26.2985Q10.679960000000001,26.1993,10.4078,26.0866Q10.13564,25.9738,9.869340000000001,25.8479Q9.60304,25.7219,9.34324,25.5831Q9.08344,25.4442,8.830770000000001,25.2927Q8.57809,25.1413,8.33316,24.9776Q8.08822,24.814,7.85161,24.6385Q7.615,24.463,7.38728,24.2761Q7.15956,24.0892,6.94129,23.8914Q6.72302,23.6936,6.5147200000000005,23.4853Q6.30642,23.277,6.1085899999999995,23.0587Q5.91076,22.8404,5.72387,22.6127Q5.536989999999999,22.385,5.36151,22.1484Q5.186030000000001,21.9118,5.02236,21.6668Q4.8587,21.4219,4.70726,21.1692Q4.55581,20.9166,4.41694,20.6568Q4.27808,20.397,4.15213,20.1307Q4.02618,19.8644,3.913446,19.5922Q3.800713,19.32,3.7014709999999997,19.0427Q3.602229,18.7653,3.5167159999999997,18.4834Q3.431203,18.2015,3.359625,17.9158Q3.288047,17.630000000000003,3.230577,17.3411Q3.173106,17.0522,3.129882,16.7608Q3.0866575,16.4694,3.0577833,16.1762Q3.028909,15.883,3.0144545,15.5888Q3,15.2946,3,15Q3,14.7054,3.0144545,14.4112Q3.028909,14.117,3.0577833,13.8238Q3.0866575,13.5306,3.129882,13.2392Q3.173106,12.94784,3.230577,12.65892Q3.288047,12.36999,3.359625,12.08424Q3.431203,11.79848,3.5167159999999997,11.51658Q3.602229,11.23468,3.7014709999999997,10.95732Q3.800713,10.679960000000001,3.913446,10.4078Q4.02618,10.13564,4.15213,9.869340000000001Q4.27808,9.60304,4.41694,9.34324Q4.55581,9.08344,4.70726,8.830770000000001Q4.8587,8.57809,5.02236,8.33316Q5.186030000000001,8.08822,5.36151,7.85161Q5.536989999999999,7.615,5.72387,7.38728Q5.91076,7.15956,6.1085899999999995,6.94129Q6.30642,6.72302,6.5147200000000005,6.5147200000000005Q6.72302,6.30642,6.94129,6.1085899999999995Q7.15956,5.91076,7.38728,5.72387Q7.615,5.536989999999999,7.85161,5.36151Q8.08822,5.186030000000001,8.33316,5.02236Q8.57809,4.8587,8.830770000000001,4.70726Q9.08344,4.55581,9.34324,4.41694Q9.60304,4.27808,9.869340000000001,4.15213Q10.13564,4.02618,10.4078,3.913446Q10.679960000000001,3.800713,10.95732,3.7014709999999997Q11.23468,3.602229,11.51658,3.5167159999999997Q11.79848,3.431203,12.08424,3.359625Q12.36999,3.288047,12.65892,3.230577Q12.94784,3.173106,13.2392,3.129882Q13.5306,3.0866575,13.8238,3.0577833Q14.117,3.028909,14.4112,3.0144545Q14.7054,3,15,3Q15.2946,3,15.5888,3.0144545Q15.883,3.028909,16.1762,3.0577833Q16.4694,3.0866575,16.7608,3.129882Q17.0522,3.173106,17.3411,3.230577Q17.630000000000003,3.288047,17.9158,3.359625Q18.2015,3.431203,18.4834,3.5167159999999997Q18.7653,3.602229,19.0427,3.7014709999999997Q19.32,3.800713,19.5922,3.913446Q19.8644,4.02618,20.1307,4.15213Q20.397,4.27808,20.6568,4.41694Q20.9166,4.55581,21.1692,4.70726Q21.4219,4.8587,21.6668,5.02236Q21.9118,5.186030000000001,22.1484,5.36151Q22.385,5.536989999999999,22.6127,5.72387Q22.8404,5.91076,23.0587,6.1085899999999995Q23.277,6.30642,23.4853,6.5147200000000005Q23.6936,6.72302,23.8914,6.94129Q24.0892,7.15956,24.2761,7.38728Q24.463,7.615,24.6385,7.85161Q24.814,8.08822,24.9776,8.33316Q25.1413,8.57809,25.2927,8.830770000000001Q25.4442,9.08344,25.5831,9.34324Q25.7219,9.60304,25.8479,9.869340000000001Q25.9738,10.13564,26.0866,10.4078Q26.1993,10.679960000000001,26.2985,10.95732Q26.3978,11.23468,26.4833,11.51658Q26.5688,11.79848,26.6404,12.08424Q26.712,12.36999,26.7694,12.65892Q26.8269,12.94784,26.8701,13.2392Q26.9133,13.5306,26.9422,13.8238Q26.9711,14.117,26.9855,14.4112Q27,14.7054,27,15ZM25,15Q25,14.7545,24.988,14.5093Q24.9759,14.2641,24.9518,14.0198Q24.9278,13.7755,24.8918,13.5327Q24.8557,13.2899,24.8078,13.0491Q24.76,12.80833,24.7003,12.5702Q24.6407,12.33207,24.5694,12.09715Q24.4981,11.86224,24.4154,11.6311Q24.3327,11.39997,24.2388,11.17317Q24.1448,10.94637,24.0399,10.724450000000001Q23.9349,10.50253,23.8192,10.28603Q23.7035,10.06953,23.5773,9.85897Q23.4511,9.64841,23.3147,9.4443Q23.1783,9.240179999999999,23.0321,9.043009999999999Q22.8858,8.84583,22.7301,8.65607Q22.5744,8.4663,22.4095,8.284410000000001Q22.2447,8.10252,22.0711,7.92893Q21.8975,7.75535,21.7156,7.59049Q21.5337,7.42563,21.3439,7.2699Q21.1542,7.11416,20.957,6.9679199999999994Q20.7598,6.82169,20.5557,6.6853Q20.3516,6.54892,20.141,6.42271Q19.9305,6.29651,19.714,6.18079Q19.4975,6.06507,19.2755,5.96011Q19.0536,5.85515,18.8268,5.7612000000000005Q18.6,5.667260000000001,18.3689,5.58456Q18.1378,5.501860000000001,17.9028,5.4306Q17.6679,5.3593399999999995,17.4298,5.29969Q17.1917,5.2400400000000005,16.9509,5.19215Q16.7101,5.14426,16.4673,5.10823Q16.2245,5.07221,15.9802,5.04815Q15.7359,5.02409,15.4907,5.01205Q15.2455,5,15,5Q14.7545,5,14.5093,5.01205Q14.2641,5.02409,14.0198,5.04815Q13.7755,5.07221,13.5327,5.10823Q13.2899,5.14426,13.0491,5.19215Q12.80833,5.2400400000000005,12.5702,5.29969Q12.33207,5.3593399999999995,12.09715,5.4306Q11.86224,5.501860000000001,11.6311,5.58456Q11.39997,5.667260000000001,11.17317,5.7612000000000005Q10.94637,5.85515,10.724450000000001,5.96011Q10.50253,6.06507,10.28603,6.18079Q10.06953,6.29651,9.85897,6.42271Q9.64841,6.54892,9.4443,6.6853Q9.240179999999999,6.82169,9.043009999999999,6.9679199999999994Q8.84583,7.11416,8.65607,7.2699Q8.4663,7.42563,8.284410000000001,7.59049Q8.10252,7.75535,7.92893,7.92893Q7.75535,8.10252,7.59049,8.284410000000001Q7.42563,8.4663,7.2699,8.65607Q7.11416,8.84583,6.9679199999999994,9.043009999999999Q6.82169,9.240179999999999,6.6853,9.4443Q6.54892,9.64841,6.42271,9.85897Q6.29651,10.06953,6.18079,10.28603Q6.06507,10.50253,5.96011,10.724450000000001Q5.85515,10.94637,5.7612000000000005,11.17317Q5.667260000000001,11.39997,5.58456,11.6311Q5.501860000000001,11.86224,5.4306,12.09715Q5.3593399999999995,12.33207,5.29969,12.5702Q5.2400400000000005,12.80833,5.19215,13.0491Q5.1442499999999995,13.2899,5.10823,13.5327Q5.07221,13.7755,5.04815,14.0198Q5.02409,14.2641,5.01205,14.5093Q5,14.7545,5,15Q5,15.2455,5.01205,15.4907Q5.02409,15.7359,5.04815,15.9802Q5.07221,16.2245,5.10823,16.4673Q5.1442499999999995,16.7101,5.19215,16.9509Q5.2400400000000005,17.1917,5.29969,17.4298Q5.3593399999999995,17.6679,5.4306,17.9028Q5.501860000000001,18.1378,5.58456,18.3689Q5.667260000000001,18.6,5.7612000000000005,18.8268Q5.85515,19.0536,5.96011,19.2755Q6.06507,19.4975,6.18079,19.714Q6.29651,19.9305,6.42271,20.141Q6.54892,20.3516,6.6853,20.5557Q6.82169,20.7598,6.9679199999999994,20.957Q7.11416,21.1542,7.2699,21.3439Q7.42563,21.5337,7.59049,21.7156Q7.75535,21.8975,7.92893,22.0711Q8.10252,22.2447,8.284410000000001,22.4095Q8.4663,22.5744,8.65607,22.7301Q8.84583,22.8858,9.043009999999999,23.0321Q9.240179999999999,23.1783,9.4443,23.3147Q9.64841,23.4511,9.85897,23.5773Q10.06953,23.7035,10.28603,23.8192Q10.50253,23.9349,10.724450000000001,24.0399Q10.94637,24.1448,11.17317,24.2388Q11.39997,24.3327,11.6311,24.4154Q11.86224,24.4981,12.09715,24.5694Q12.33207,24.6407,12.5702,24.7003Q12.80833,24.76,13.0491,24.8078Q13.2899,24.8557,13.5327,24.8918Q13.7755,24.9278,14.0198,24.9518Q14.2641,24.9759,14.5093,24.988Q14.7545,25,15,25Q15.2455,25,15.4907,24.988Q15.7359,24.9759,15.9802,24.9518Q16.2245,24.9278,16.4673,24.8918Q16.7101,24.8557,16.9509,24.8078Q17.1917,24.76,17.4298,24.7003Q17.6679,24.6407,17.9028,24.5694Q18.1378,24.4981,18.3689,24.4154Q18.6,24.3327,18.8268,24.2388Q19.0536,24.1448,19.2755,24.0399Q19.4975,23.9349,19.714,23.8192Q19.9305,23.7035,20.141,23.5773Q20.3516,23.4511,20.5557,23.3147Q20.7598,23.1783,20.957,23.0321Q21.1542,22.8858,21.3439,22.7301Q21.5337,22.5744,21.7156,22.4095Q21.8975,22.2447,22.0711,22.0711Q22.2447,21.8975,22.4095,21.7156Q22.5744,21.5337,22.7301,21.3439Q22.8858,21.1542,23.0321,20.957Q23.1783,20.7598,23.3147,20.5557Q23.4511,20.3516,23.5773,20.141Q23.7035,19.9305,23.8192,19.714Q23.9349,19.4975,24.0399,19.2755Q24.1448,19.0536,24.2388,18.8268Q24.3327,18.6,24.4154,18.3689Q24.4981,18.1378,24.5694,17.9028Q24.6407,17.6679,24.7003,17.4298Q24.76,17.1917,24.8078,16.9509Q24.8557,16.7101,24.8918,16.4673Q24.9278,16.2245,24.9518,15.9802Q24.9759,15.7359,24.988,15.4907Q25,15.2455,25,15Z" fill="#E4773D" fill-opacity="1"/></g><g><g><path d="M20.46725781036377,14.878739287902832C20.85529781036377,15.266774287902832,20.85529781036377,15.894902287902832,20.46725781036377,16.28294228790283L16.041227810363768,20.70897228790283C15.65318781036377,21.09701228790283,15.02505981036377,21.09701228790283,14.63702481036377,20.70897228790283C14.248988910363769,20.32094228790283,14.248988910363769,19.692802287902833,14.63702481036377,19.304772287902832L19.06305781036377,14.878739287902832C19.45108781036377,14.490703387902832,20.07922781036377,14.490703387902832,20.46725781036377,14.878739287902832Z" fill="#E4773D" fill-opacity="1" style="mix-blend-mode:passthrough"/></g><g><path d="M10.291027,14.878739287902832C10.679062,14.490703387902832,11.30719,14.490703387902832,11.69523,14.878739287902832L16.12126,19.304772287902832C16.5093,19.692802287902833,16.5093,20.32094228790283,16.12126,20.70897228790283C15.733229999999999,21.09701228790283,15.10509,21.09701228790283,14.71706,20.70897228790283L10.291027,16.28294228790283C9.9029911,15.894902287902832,9.9029911,15.264349287902832,10.291027,14.878739287902832Z" fill="#E4773D" fill-opacity="1" style="mix-blend-mode:passthrough"/></g><g><path d="M15.34033881036377,9C15.888437810363769,9,16.334677810363768,9.443816,16.334677810363768,9.994341L16.334677810363768,19.983800000000002C16.334677810363768,20.5319,15.890867810363769,20.9782,15.34033881036377,20.9782C14.79223881036377,20.9782,14.34599781036377,20.534399999999998,14.34599781036377,19.983800000000002L14.34599781036377,9.991916C14.34599781036377,9.443816,14.79223881036377,9,15.34033881036377,9Z" fill="#E4773D" fill-opacity="1" style="mix-blend-mode:passthrough"/></g></g></g></svg>